<svg width="19" height="19" viewBox="0 0 19 19" fill="none" xmlns="http://www.w3.org/2000/svg">
<path d="M11.5563 9.50011L17.8271 3.24386C18.1017 2.96925 18.256 2.5968 18.256 2.20844C18.256 1.82008 18.1017 1.44763 17.8271 1.17302C17.5525 0.898415 17.1801 0.744141 16.7917 0.744141C16.4033 0.744141 16.0309 0.898415 15.7563 1.17302L9.50003 7.44386L3.24378 1.17302C2.96917 0.898415 2.59672 0.744141 2.20837 0.744141C1.82001 0.744141 1.44756 0.898415 1.17295 1.17302C0.89834 1.44763 0.744066 1.82008 0.744066 2.20844C0.744066 2.5968 0.89834 2.96925 1.17295 3.24386L7.44378 9.50011L1.17295 15.7564C1.03626 15.8919 0.927771 16.0532 0.853733 16.2309C0.779696 16.4086 0.741577 16.5993 0.741577 16.7918C0.741577 16.9843 0.779696 17.1749 0.853733 17.3526C0.927771 17.5303 1.03626 17.6916 1.17295 17.8272C1.30852 17.9639 1.46981 18.0724 1.64753 18.1464C1.82524 18.2204 2.01585 18.2586 2.20837 18.2586C2.40088 18.2586 2.5915 18.2204 2.76921 18.1464C2.94692 18.0724 3.10821 17.9639 3.24378 17.8272L9.50003 11.5564L15.7563 17.8272C15.8919 17.9639 16.0531 18.0724 16.2309 18.1464C16.4086 18.2204 16.5992 18.2586 16.7917 18.2586C16.9842 18.2586 17.1748 18.2204 17.3525 18.1464C17.5303 18.0724 17.6915 17.9639 17.8271 17.8272C17.9638 17.6916 18.0723 17.5303 18.1463 17.3526C18.2204 17.1749 18.2585 16.9843 18.2585 16.7918C18.2585 16.5993 18.2204 16.4086 18.1463 16.2309C18.0723 16.0532 17.9638 15.8919 17.8271 15.7564L11.5563 9.50011Z" fill="black"/>
</svg>
